<?xml version="1.0" encoding="UTF-8" standalone="no"?><!-- Generator: Gravit.io --><svg xmlns="http://www.w3.org/2000/svg" xmlns:xlink="http://www.w3.org/1999/xlink" style="isolation:isolate" viewBox="0 0 512 512" width="512pt" height="512pt"><defs><clipPath id="_clipPath_i0mfqn2nGviKCg5BF1FZHU80auJlm8xi"><rect width="512" height="512"/></clipPath></defs><g clip-path="url(#_clipPath_i0mfqn2nGviKCg5BF1FZHU80auJlm8xi)"><path d=" M 491.94 3.874 C 477.903 -3.155 460.537 -0.583 452.699 11.302 L 374.79 157.6 C 380.559 159.598 393.765 165.315 436.828 184.782 L 437.34 185.008 C 444.799 188.379 450.475 190.95 452.709 191.903 C 453.488 192.262 454.215 192.702 454.994 193.071 L 511.56 36.342 C 515.105 23.945 506.151 9.529 491.94 3.874 L 491.94 3.874 L 491.94 3.874 Z  M 299.587 270.488 C 302.328 269.837 305.216 270.357 307.558 271.922 C 309.904 273.469 311.513 275.918 311.994 278.684 C 312.67 282.516 317.025 287.014 323.357 290.436 C 332.311 295.293 341.932 296.379 346.03 294.606 C 348.72 293.452 351.776 293.508 354.422 294.76 C 357.073 296.001 359.063 298.322 359.883 301.133 C 361.317 305.999 366.327 311.03 373.305 314.585 C 381.491 318.755 390.712 320.077 396.849 317.915 C 401.583 316.255 406.88 318.274 409.288 322.72 C 418.314 339.493 448.016 341.511 471.059 339.892 C 474.07 331.292 476.868 322.618 479.45 313.878 C 476.674 314.022 473.795 314.114 470.793 314.114 C 449.338 314.114 423.457 310.016 410.681 292.496 C 402.044 293.674 392.136 291.655 382.218 286.604 C 374.995 282.936 367.106 277.127 362.393 270.139 C 349.35 270.129 334.217 263.172 326.728 258.562 C 320.928 254.986 316.625 251.287 313.838 247.476 C 293.511 245.601 278.747 232.435 268.788 219.064 C 265.706 226.38 262.228 233.521 258.368 240.458 C 262.774 251.195 275.683 275.979 299.587 270.488 L 299.587 270.488 L 299.587 270.488 Z  M 40.646 163.656 C 18.044 163.656 -0.336 145.275 -0.336 122.673 C -0.336 100.071 18.044 81.69 40.646 81.69 C 63.248 81.69 81.629 100.071 81.629 122.673 C 81.629 145.275 63.248 163.656 40.646 163.656 L 40.646 163.656 L 40.646 163.656 Z  M 112.366 132.918 C 112.366 121.609 121.548 112.427 132.858 112.427 C 144.167 112.427 153.349 121.609 153.349 132.918 C 153.349 144.228 144.167 153.41 132.858 153.41 C 121.548 153.41 112.366 144.228 112.366 132.918 L 112.366 132.918 Z  M 117.489 296.85 C 86.381 296.816 61.172 271.607 61.138 240.499 C 61.138 209.423 86.414 184.147 117.489 184.147 C 148.565 184.147 173.841 209.423 173.841 240.499 C 173.841 271.564 148.565 296.85 117.489 296.85 L 117.489 296.85 Z  M 320.017 227.189 C 325.041 227.015 329.448 230.514 330.416 235.447 C 334.279 241.503 357.987 252.045 364.831 249.382 C 367.704 248.286 370.916 248.536 373.585 250.062 C 376.254 251.588 378.099 254.229 378.612 257.261 C 379.022 258.931 383.735 264.771 392.946 269.053 C 400.179 272.404 407.095 273.285 411.05 271.307 C 413.603 270.039 416.569 269.888 419.237 270.893 C 421.905 271.898 424.035 273.967 425.117 276.604 C 432.023 293.5 463.805 294.688 485.444 292.895 C 488.654 279.223 487.785 264.911 482.944 251.728 C 476.172 233.419 462.504 218.839 444.266 210.602 C 442.33 209.772 436.285 207.036 428.386 203.47 C 391.901 186.985 371.184 177.784 367.147 176.678 C 331.502 162.59 299.412 171.114 279.812 198.563 C 287.548 211.585 300.919 227.609 320.017 227.189 L 320.017 227.189 Z  M 458.078 361.07 C 435.66 361.07 409.759 356.675 395.651 339.103 C 385.722 340.323 374.391 338.161 363.971 332.833 C 355.477 328.489 348.674 322.516 344.34 315.764 C 333.438 316.676 321.707 312.844 313.613 308.469 C 305.283 303.961 299.033 298.202 295.324 291.748 C 271.759 292.987 255.274 276.932 245.581 260.672 C 182.058 348.929 73.535 346.245 72.275 346.07 C 68.181 345.721 64.272 347.845 62.337 351.47 C 60.41 355.097 60.841 359.523 63.423 362.73 C 80.651 384.003 100.041 403.431 121.28 420.7 C 130.717 422.596 190.213 431.151 249.075 362.894 C 252.77 358.608 259.24 358.128 263.527 361.823 C 267.813 365.518 268.292 371.989 264.597 376.275 C 223.543 423.877 180.07 438.63 149.815 441.807 C 173.224 457.569 198.178 470.906 224.291 481.611 C 239.403 478.455 290.458 463.118 335.354 394.697 C 338.56 390.228 344.72 389.084 349.317 392.102 C 353.914 395.121 355.312 401.229 352.485 405.947 C 318.613 457.554 281.441 481.703 255.335 493.004 C 308.593 510.268 348.459 511.898 351.819 512 L 352.127 512 C 354.053 512 355.959 511.447 357.598 510.422 C 360.467 508.609 419.677 469.931 463.139 360.958 C 461.459 361.009 459.799 361.07 458.078 361.07 L 458.078 361.07 L 458.078 361.07 Z " fill-rule="evenodd" fill="rgb(30,126,235)"/></g></svg>