<?xml version="1.0" encoding="UTF-8" standalone="no"?><!-- Generator: Gravit.io --><svg xmlns="http://www.w3.org/2000/svg" xmlns:xlink="http://www.w3.org/1999/xlink" style="isolation:isolate" viewBox="0 0 512 512" width="512pt" height="512pt"><defs><clipPath id="_clipPath_FvIq6wjJ4hh3tr6eX7gThtMbRvGCNz4u"><rect width="512" height="512"/></clipPath></defs><g clip-path="url(#_clipPath_FvIq6wjJ4hh3tr6eX7gThtMbRvGCNz4u)"><path d=" M 512 512 L 187.375 512 L 187.375 488.648 L 512 488.648 L 512 512 L 512 512 Z " fill="rgb(30,126,235)"/><path d=" M 501.572 162.483 L 349.727 10.484 C 337.684 -3.26 313.54 -3.54 300.135 9.936 L 10.965 299.387 C 4.188 305.351 0.217 313.885 0.016 322.915 C -0.276 332.688 3.495 342.144 10.43 349.029 L 162.822 501.622 C 169.297 508.219 178.135 511.955 187.374 512 C 196.604 511.951 205.428 508.195 211.867 501.576 L 501.037 212.124 C 507.814 206.16 511.785 197.627 511.986 188.597 C 512.257 178.828 508.49 169.38 501.572 162.483 Z  M 201.803 142.361 Q 191.338 147.968 201.803 226.086 Q 142 247.765 142 261.968 Q 142 276.171 213.764 297.85 Q 220.492 363.26 237.685 369.614 Q 254.879 375.968 297.489 309.811 Q 363.272 320.65 369.253 309.811 Q 375.233 298.971 333.37 238.047 Q 353.29 174.381 345.331 166.283 Q 337.372 158.185 273.567 190.204 Q 212.269 136.755 201.803 142.361 Z " fill-rule="evenodd" fill="rgb(30,126,235)"/></g></svg>