<?xml version="1.0" encoding="UTF-8" standalone="no"?><!-- Generator: Gravit.io --><svg xmlns="http://www.w3.org/2000/svg" xmlns:xlink="http://www.w3.org/1999/xlink" style="isolation:isolate" viewBox="0 0 256 256" width="256pt" height="256pt"><defs><clipPath id="_clipPath_5If08fvISw9LZl431mPmQ5rzRXui1kLh"><rect width="256" height="256"/></clipPath></defs><g clip-path="url(#_clipPath_5If08fvISw9LZl431mPmQ5rzRXui1kLh)"><path d=" M 217.238 174.341 L 216.113 132.695 L 147.675 152.466 C 141.509 153.82 135.425 154.466 129.467 154.487 C 123.071 154.507 116.779 153.82 110.592 152.466 L 45.217 132.487 L 45.217 174.716 C 47.092 196.653 110.029 203.362 129.342 204.278 C 144.821 205.028 205.967 196.945 214.008 184.341 C 215.738 181.591 216.821 178.257 217.238 174.341 L 217.238 174.341 Z  M 244.967 102.716 L 244.967 153.612 L 246.571 153.612 C 247.675 153.612 248.571 154.507 248.571 155.612 L 248.571 169.299 C 248.571 170.382 247.675 171.299 246.571 171.299 L 244.967 171.299 L 244.967 176.091 C 247.008 176.466 248.571 178.278 248.571 180.424 L 248.571 180.424 C 248.571 182.841 246.571 184.841 244.154 184.841 L 236.258 184.841 C 233.842 184.841 231.842 182.862 231.842 180.424 L 231.842 180.424 C 231.842 178.278 233.404 176.466 235.446 176.091 L 235.446 171.299 L 233.842 171.299 C 232.758 171.299 231.842 170.403 231.842 169.299 L 231.842 155.612 C 231.842 154.507 232.738 153.612 233.842 153.612 L 235.446 153.612 L 235.446 105.695 L 152.154 131.57 C 137.071 135.153 121.988 135.403 106.904 131.57 L 14.967 104.133 L 6.655 101.653 C -3.699 97.424 -1.116 87.487 8.53 85.195 L 112.509 54.154 C 123.238 51.091 133.946 50.612 144.675 54.154 L 246.779 84.82 C 257.883 87.528 260.071 97.799 247.154 102.028 L 244.967 102.716 L 244.967 102.716 Z " fill-rule="evenodd" fill="rgb(30,126,235)"/></g></svg>