<?xml version="1.0" encoding="UTF-8" standalone="no"?><!-- Generator: Gravit.io --><svg xmlns="http://www.w3.org/2000/svg" xmlns:xlink="http://www.w3.org/1999/xlink" style="isolation:isolate" viewBox="0 0 256 256" width="256pt" height="256pt"><defs><clipPath id="_clipPath_SknztgWmpiWrniQ71Qf61szCKXVcVAmn"><rect width="256" height="256"/></clipPath></defs><g clip-path="url(#_clipPath_SknztgWmpiWrniQ71Qf61szCKXVcVAmn)"><path d=" M 125.952 37.739 C 165.572 37.739 205.926 38.717 215.22 39.94 C 224.513 41.407 235.03 44.587 238.454 47.032 C 241.878 49.478 246.769 55.103 249.459 59.75 C 253.128 66.353 254.351 74.668 255.573 99.859 C 256.307 117.468 256.063 144.37 255.084 159.778 C 253.617 178.121 251.416 190.838 248.725 196.219 C 246.524 200.865 241.878 206.735 238.454 209.181 C 234.785 212.116 225.247 214.806 213.997 216.029 C 203.97 217.252 167.04 218.23 132.067 218.23 C 97.093 218.474 58.696 217.252 46.468 216.029 C 33.75 214.561 21.522 211.871 17.364 209.181 C 13.451 206.98 8.071 200.621 5.136 195.24 C 0.245 186.191 0 181.545 0 130.43 C 0 83.962 0.734 73.69 4.402 63.907 C 6.848 56.57 11.25 50.212 15.897 47.277 C 20.055 44.587 30.082 41.407 38.642 40.184 C 46.957 38.962 86.332 37.983 125.952 37.739 Z  M 102.718 91.299 C 103.452 91.299 118.126 99.37 135.735 109.153 C 153.099 118.691 167.284 127.251 167.284 127.984 C 167.284 128.718 153.099 137.278 135.735 147.061 C 118.126 156.599 103.452 164.669 102.718 164.669 C 101.985 164.669 101.496 148.039 101.496 127.984 C 101.496 107.685 101.985 91.299 102.718 91.299 Z " fill-rule="evenodd" fill="rgb(235, 30, 30)"/></g></svg>