<?xml version="1.0" encoding="UTF-8" standalone="no"?><!-- Generator: Gravit.io --><svg xmlns="http://www.w3.org/2000/svg" xmlns:xlink="http://www.w3.org/1999/xlink" style="isolation:isolate" viewBox="0 0 1280 800" width="1280pt" height="800pt"><defs><clipPath id="_clipPath_WKXC5x5m0gg0J9sz52gJbrAuKnVMHdXU"><rect width="1280" height="800"/></clipPath></defs><g clip-path="url(#_clipPath_WKXC5x5m0gg0J9sz52gJbrAuKnVMHdXU)"><rect width="1280" height="800" style="fill:rgb(244,244,244)"/><g><path d=" M 543.441 293.486 C 566.786 294.524 569.964 295.464 577.065 303.538 C 582.998 310.315 585.365 317.707 586.922 334.341 C 588.024 346.37 588.413 380.545 587.732 410.278 C 586.63 459.077 585.819 465.238 579.691 473.506 C 573.174 482.228 571.455 482.714 544.024 483.525 C 523.435 484.141 514.486 483.201 512.8 480.282 C 511.47 478.045 510.238 437.807 510.076 390.856 C 509.817 328.764 510.789 303.732 513.708 298.934 C 517.274 293 520.29 292.449 543.441 293.486 L 543.441 293.486 Z  M 632.575 293.551 C 652.808 294.362 660.622 296.015 664.999 300.393 C 669.798 305.159 670.965 312.844 671.711 344.165 C 672.457 374.125 671.581 383.723 667.658 389.462 C 663.183 396.012 663.216 397.179 667.69 400.811 C 671.743 404.085 672.684 412.548 672.424 484.303 L 646.485 484.303 L 646.42 449.447 C 646.42 430.284 645.318 412.678 643.988 410.343 C 642.691 408.009 637.99 406.55 633.515 407.101 C 625.895 408.041 625.409 409.273 625.344 427.561 C 625.312 438.261 624.955 455.413 623.788 484.303 L 597.848 484.303 L 597.2 392.542 C 596.649 315.859 597.33 300.101 601.253 296.632 C 604.495 293.778 614.255 292.838 632.575 293.551 L 632.575 293.551 Z  M 722.844 293 C 741.553 293 744.049 293.778 746.546 300.295 C 748.07 304.316 750.372 319.264 751.637 333.53 C 752.869 347.797 755.982 383.561 758.511 412.97 C 761.007 442.378 763.115 470.49 763.147 475.386 C 763.212 483.655 762.239 484.303 750.242 484.303 C 739.413 484.303 737.013 483.103 735.684 477.008 C 734.841 472.987 734.128 462.417 734.128 453.5 C 734.128 444.583 732.993 432.489 731.631 426.62 C 730.107 420.006 726.735 415.337 722.682 414.267 C 719.115 413.326 715.905 413.002 715.581 413.553 C 715.224 414.137 713.765 430.284 709.712 484.335 L 695.932 484.335 C 687.08 484.303 682.152 482.844 682.184 480.25 C 682.184 478.013 685.07 443.384 688.572 403.242 C 692.073 363.134 695.867 323.317 697.002 314.822 C 698.137 306.294 699.693 297.896 700.504 296.178 C 701.282 294.427 711.333 293 722.844 293 L 722.844 293 Z  M 769.243 293 L 795.636 293 L 795.572 371.629 C 795.539 429.765 796.609 451.879 799.625 456.418 C 801.894 459.823 805.947 461.801 808.606 460.893 C 812.724 459.434 813.405 449.544 813.048 396.368 C 812.821 361.804 812.821 324.419 813.47 293 L 837.788 293 L 837.788 461.606 L 852.379 459.985 L 853.935 293 L 879.939 293 L 880.491 318.129 C 880.782 331.942 880.75 371.694 880.393 406.485 C 879.907 455.835 878.707 471.301 874.978 477.008 C 870.439 483.946 868.169 484.303 827.25 484.4 C 787.498 484.498 783.802 484.011 777.803 477.591 C 771.707 471.074 771.253 465.4 770.281 381.842 L 769.243 293 L 769.243 293 Z  M 951.273 293 L 951.273 318.939 L 920.47 320.561 L 920.47 375.682 L 935.871 376.492 C 951.143 377.303 951.273 377.4 951.273 388.652 C 951.273 399.903 951.143 400 920.47 401.621 L 920.47 459.985 L 935.871 460.795 C 951.143 461.606 951.273 461.703 951.273 484.303 L 894.53 482.682 L 893.136 392.283 C 892.034 321.209 892.617 300.944 895.925 297.442 C 898.778 294.394 908.213 293 951.273 293 L 951.273 293 Z  M 996.148 293.551 C 1020.498 294.524 1023.806 295.432 1029.512 302.727 C 1034.927 309.666 1035.835 315.956 1035.77 346.5 C 1035.705 372.277 1034.376 383.95 1031.004 388.652 C 1027.081 394.131 1027.048 395.882 1030.745 400 C 1033.825 403.405 1035.446 416.893 1037.197 484.303 L 1009.636 484.303 L 1008.015 408.106 L 990.182 406.485 L 990.182 484.303 L 961 484.303 L 960.352 392.542 C 959.8 315.859 960.481 300.101 964.405 296.632 C 967.647 293.778 977.472 292.838 996.148 293.551 L 996.148 293.551 Z  M 539.971 318.518 L 557.318 320.561 L 558.129 388.652 C 558.712 440.271 557.934 457.326 554.886 459.109 C 552.649 460.439 548.272 461.541 545.159 461.541 C 539.906 461.606 539.517 456.159 539.712 390.046 L 539.971 318.518 L 539.971 318.518 Z  M 632.867 318.875 C 635.882 318.842 640.227 320.69 642.497 322.928 C 644.993 325.457 646.582 335.541 646.55 348.932 C 646.517 360.961 645.739 373.023 644.864 375.682 C 643.988 378.341 639.968 380.545 635.947 380.578 C 629.138 380.578 628.457 378.665 625.831 352.207 C 624.274 336.578 623.982 322.701 625.182 321.371 C 626.382 320.042 629.819 318.907 632.867 318.875 L 632.867 318.875 Z  M 724.173 320.561 C 725.6 322.344 727.643 338.751 728.778 357.038 C 730.755 389.916 730.723 390.273 723.622 389.462 C 717.105 388.716 716.521 387.063 717.235 370.818 C 717.624 360.994 718.791 344.976 719.764 335.152 C 720.769 325.327 722.747 318.777 724.173 320.561 L 724.173 320.561 Z  M 990.668 318.518 L 1008.015 320.561 L 1008.015 378.924 L 990.182 380.545 L 990.409 349.515 L 990.668 318.518 L 990.668 318.518 Z " fill-rule="evenodd" fill="rgb(100,196,193)"/><path d=" M 108.242 293 L 176.333 293 L 176.333 305.97 C 176.333 318.226 175.782 318.939 156.879 318.939 L 156.879 484.303 L 127.697 484.303 L 127.697 318.939 L 117.97 318.939 C 108.794 318.939 108.242 318.226 108.242 305.97 L 108.242 293 L 108.242 293 Z  M 226.591 294.265 C 242.576 295.172 247.083 296.761 251.849 303.116 C 257.07 310.055 257.653 318.842 257.556 390.273 C 257.459 455.543 256.583 471.009 252.563 477.008 C 248.185 483.492 244.911 484.303 222.538 484.4 C 200.976 484.498 196.501 483.525 190.924 477.591 C 184.828 471.074 184.439 466.178 184.439 394.002 C 184.439 351.818 185.834 313.427 187.552 308.661 C 189.271 303.927 194.394 298.48 198.901 296.599 C 203.44 294.718 215.891 293.648 226.591 294.265 L 226.591 294.265 Z  M 270.364 293 L 296.303 293 L 296.173 373.25 C 296.044 443.448 296.692 454.116 301.296 458.364 C 305.349 462.06 307.878 462.384 311.996 459.628 C 316.73 456.451 317.476 446.367 319 293 L 344.939 293 L 344.939 378.924 C 344.939 437.288 343.74 467.183 341.211 472.144 C 339.168 476.165 335.893 480.509 333.915 481.806 C 331.97 483.136 320.135 484.206 307.652 484.206 C 295.168 484.206 283.333 483.136 281.388 481.806 C 279.41 480.509 276.135 476.165 274.092 472.144 C 271.563 467.183 270.364 437.288 270.364 378.924 L 270.364 293 L 270.364 293 Z  M 416.273 293 L 416.273 318.939 L 385.47 320.561 L 384.659 388.652 C 384.075 440.271 384.854 457.326 387.902 459.109 C 390.139 460.439 397.434 461.541 404.114 461.541 C 415.851 461.606 416.273 461.995 416.273 484.303 L 391.955 484.303 C 370.36 484.303 367.085 483.492 362.74 477.008 C 358.72 471.009 357.877 455.802 357.877 391.083 C 357.909 335.605 359.076 310.477 361.832 305.775 C 363.972 302.111 368.706 297.831 372.37 296.275 C 376.002 294.686 387.383 293.324 416.273 293 L 416.273 293 Z  M 426 293 L 451.939 293 L 451.939 377.303 L 473.015 375.682 L 474.474 293 L 500.576 293 L 500.576 484.303 L 474.636 484.303 L 473.015 401.621 L 451.939 400 L 451.939 484.303 L 426 484.303 L 426 388.652 L 426 293 L 426 293 Z  M 223.219 319.62 C 229.606 320.528 229.866 322.83 230.644 389.462 C 231.422 455.997 231.228 458.428 224.97 459.985 C 221.403 460.86 217.026 460.86 215.242 459.985 C 213.265 458.98 211.805 432.035 211.449 390.824 C 211.157 353.666 212.195 322.214 213.751 320.95 C 215.307 319.685 219.555 319.102 223.219 319.62 L 223.219 319.62 Z " fill-rule="evenodd" fill="rgb(201,63,38)"/><path d=" M 1124.872 301.56 C 1126.915 304.867 1138.263 324.387 1171.531 382.167 L 1171.595 472.955 L 1160.344 478.629 C 1152.238 482.714 1141.279 484.303 1121.5 484.303 C 1100.424 484.303 1090.892 482.779 1068 471.333 L 1068.097 385.409 L 1086.449 352.985 C 1096.533 335.152 1108.465 314.919 1112.94 308.045 C 1120.462 296.567 1121.435 296.015 1124.872 301.56 L 1124.872 301.56 Z  M 1120.754 328.699 C 1132.816 328.699 1135.215 329.996 1140.501 339.237 C 1143.84 345.008 1150.779 357.395 1165.273 383.788 L 1155.545 388.652 C 1146.759 393.061 1144.619 392.964 1133.173 387.841 C 1121.046 382.394 1120.009 382.426 1108.044 388.198 C 1096.404 393.807 1094.847 393.872 1074.485 383.788 L 1086.222 363.523 C 1092.707 352.369 1100.035 339.983 1102.499 335.962 C 1106.066 330.255 1110.022 328.667 1120.754 328.699 L 1120.754 328.699 Z " fill-rule="evenodd" fill="rgb(100,196,193)"/><path d=" M 640 497.273 C 1110.508 497.273 1171.758 497.824 1171.758 502.136 C 1171.758 506.449 1110.508 507 640 507 C 169.492 507 108.242 506.449 108.242 502.136 C 108.242 497.824 169.492 497.273 640 497.273 Z " fill="rgb(201,63,38)"/></g></g></svg>