<?xml version="1.0" encoding="UTF-8" standalone="no"?>
  <!-- Generator: Gravit.io -->
  <svg xmlns="http://www.w3.org/2000/svg" xmlns:xlink="http://www.w3.org/1999/xlink" style="isolation:isolate" viewBox="0 0 512 512" width="512pt" height="512pt">
    <defs>
      <clipPath id="_clipPath_jCfgqNBUGS5kboU8FaQA5VYG8akyV8JT">
        <rect width="512" height="512" />
      </clipPath>
    </defs>
    <g clip-path="url(#_clipPath_jCfgqNBUGS5kboU8FaQA5VYG8akyV8JT)">
<!--      <rect width="512" height="512" style="fill:rgb(244,244,244)" />-->
      <path d=" M 248 70 L 208.425 92 L 123 240.013 L 208.425 293 L 389 248.931 L 389 231.096 L 298 75 L 248 70 Z " fill="rgb(255,255,255)" />
      <path d=" M 269.956 9.404 C 275.574 18.5 306.786 72.184 398.28 231.096 L 398.459 480.788 L 367.515 496.394 C 345.221 507.63 315.079 512 260.682 512 C 202.717 512 176.5 507.809 113.541 476.33 L 113.809 240.013 L 164.282 150.837 C 192.016 101.79 224.833 46.145 237.139 27.239 C 257.828 -4.329 260.503 -5.845 269.956 9.404 L 269.956 9.404 Z  M 258.631 84.044 C 291.804 84.044 298.403 87.612 312.939 113.027 C 322.124 128.9 341.208 162.965 381.069 235.554 L 354.316 248.931 C 330.15 261.059 324.264 260.791 292.785 246.701 C 259.433 231.72 256.58 231.809 223.674 247.682 C 191.66 263.11 187.379 263.288 131.377 235.554 L 163.658 179.819 C 181.493 149.143 201.647 115.078 208.425 104.02 C 218.234 88.325 229.113 83.955 258.631 84.044 L 258.631 84.044 Z " fill-rule="evenodd" fill="rgb(100,196,193)" />
    </g>
  </svg>
